<svg width="1141" height="686" viewBox="0 0 1141 686" fill="none" xmlns="http://www.w3.org/2000/svg">
<line x1="6.55671e-08" y1="663.25" x2="1140" y2="663.25" stroke="#181818" stroke-width="1.5"/>
<path d="M607.364 287.09L595.122 284.473C595.122 284.473 587.872 283.522 583.474 286.734L584.188 290.659C584.188 290.659 590.368 288.28 594.409 288.994L606.651 292.206L607.364 287.09Z" fill="#181818"/>
<path d="M659.302 334.911C658.707 335.506 658.113 336.101 657.519 336.695C655.142 338.955 652.646 341.335 651.339 344.784C650.626 346.807 649.437 358.107 649.437 379.995H653.835C654.31 353.468 654.429 347.758 655.023 346.212C655.974 343.595 658.113 341.573 660.253 339.55C660.847 338.955 661.56 338.361 662.154 337.647C665.482 334.197 667.859 330.153 668.81 325.87C670.949 316.592 664.293 308.503 656.806 304.458L654.904 307.908C661.084 311.239 666.552 317.781 664.888 325.038C664.175 328.487 662.154 331.937 659.302 334.911Z" fill="#181818"/>
<path d="M640.999 310.763C640.999 310.763 645.04 312.666 649.318 306.361L653.003 308.265L646.822 314.094C646.822 314.094 643.97 317.068 639.216 314.094L627.212 307.789L630.896 302.912C631.015 302.793 632.441 308.859 640.999 310.763Z" fill="#181818"/>
<path d="M607.364 285.425L613.901 286.496C613.901 286.496 619.368 281.499 624.003 282.213L642.306 288.637C642.306 288.637 648.13 290.897 646.347 295.417L656.925 302.555L652.765 308.384L639.454 301.722C639.454 301.722 636.007 298.867 630.183 305.886C630.183 305.886 627.212 309.692 621.864 306.123C621.864 306.123 610.81 301.484 612.831 295.774L604.987 293.157C605.106 293.157 604.63 288.399 607.364 285.425Z" fill="#6638E9"/>
<path d="M653.003 309.216L639.216 302.317C639.097 302.198 636.126 300.057 630.777 306.48C630.777 306.48 627.331 310.644 621.745 306.837C620.794 306.48 611.048 302.079 612.237 296.25L604.63 293.633V293.276C604.63 293.038 604.155 288.161 607.007 285.187L607.245 284.949L613.782 286.02C614.851 285.068 619.843 281.143 624.122 281.737L642.544 288.161C644.683 288.994 648.249 291.492 647.06 295.298L657.757 302.555L653.003 309.216ZM639.929 301.246L652.646 307.67L656.093 302.793L645.634 295.774L645.753 295.298C647.298 291.373 642.306 289.351 642.068 289.232L623.765 282.927C619.605 282.332 614.257 287.09 614.257 287.09L614.019 287.328L607.601 286.258C605.7 288.518 605.7 291.73 605.7 292.8L613.663 295.536L613.425 296.131C611.642 301.365 622.101 305.767 622.22 305.767H622.339C627.093 308.978 629.708 305.767 629.827 305.648C635.65 298.629 639.335 300.889 639.929 301.246Z" fill="#6638E9"/>
<path d="M632.085 304.458C632.085 304.458 632.679 305.767 633.63 306.718C633.63 306.718 636.958 304.815 638.384 305.053C638.384 305.053 639.335 304.815 641.474 309.93C641.474 309.93 642.187 310.644 642.425 309.93L640.167 304.577C640.167 304.458 638.859 300.533 632.085 304.458Z" fill="#181818"/>
<path d="M656.763 301.689L652.197 308.792L654.996 310.594L659.562 303.491L656.763 301.689Z" fill="white"/>
<path d="M655.142 311.477L651.339 308.978L656.568 300.77L660.371 303.269L655.142 311.477ZM653.003 308.622L654.785 309.811L658.708 303.625L656.925 302.436L653.003 308.622Z" fill="#030303"/>
<path d="M663.416 502.726L663.416 502.726C667.463 508.303 670.217 518.278 672.342 530.728C674.417 542.883 675.882 557.327 677.391 572.2L677.494 573.215L677.843 573.181L677.494 573.216L677.494 573.216C680.049 599.138 682.784 626.832 689.08 648.133C692.228 658.785 696.275 667.87 701.658 674.343C707.05 680.826 713.788 684.693 722.286 684.874C739.641 685.231 757.115 685.35 772.686 685.35C788.198 685.35 801.867 685.231 811.703 685.112C819.651 685.016 825.088 684.92 826.98 684.887C827.431 684.879 827.68 684.874 827.714 684.874H1140H1140.35V684.524V682.145V681.795H1140H827.595C827.554 681.795 827.267 681.801 826.751 681.811C819.721 681.947 770.243 682.903 722.301 681.795C714.581 681.62 708.432 677.953 703.456 671.722C698.47 665.481 694.672 656.677 691.683 646.272C685.733 625.554 683.029 598.615 680.483 573.247L680.449 572.908L680.361 572.032C678.848 556.939 677.376 542.265 675.246 529.881C673.077 517.274 670.216 506.968 665.884 501.007C660.524 493.578 657.014 482.386 654.779 469.717C652.546 457.058 651.592 442.966 651.317 429.771C650.768 403.381 652.936 380.617 652.993 380.158L652.995 380.143L652.996 380.128L653.115 377.154L653.128 376.808L652.782 376.791L650.405 376.672L650.053 376.654L650.038 377.007L649.92 379.853C649.918 379.875 649.915 379.899 649.913 379.926C649.687 382.33 647.549 405.087 648.166 431.125C648.478 444.31 649.497 458.345 651.83 471.009C654.162 483.664 657.813 494.99 663.416 502.726Z" fill="#181818" stroke="#181818" stroke-width="0.7"/>
<path d="M562.794 462.194H427.304C423.857 462.194 421.123 459.458 421.123 456.009C421.123 452.559 423.857 449.823 427.304 449.823H562.794C566.241 449.823 568.975 452.559 568.975 456.009C568.975 459.458 566.241 462.194 562.794 462.194Z" fill="#181818"/>
<path d="M556.733 462.195H433.246V663.231H556.733V462.195Z" fill="white"/>
<path d="M557.446 663.826H432.652V461.6H557.446V663.826ZM433.84 662.636H556.257V462.789H433.84V662.636Z" fill="#181818"/>
<path d="M569.688 332.651C569.688 332.651 612.593 364.412 622.933 389.155C633.273 413.779 622.933 537.137 622.933 537.137C611.523 537.137 602.253 527.858 602.253 516.439V495.74C602.253 462.432 585.495 431.385 557.684 413.184L551.503 409.021L569.688 332.651Z" fill="#181818"/>
<path d="M420.41 332.651C420.41 332.651 377.505 364.412 367.165 389.155C356.825 413.779 367.165 537.137 367.165 537.137C378.574 537.137 387.845 527.858 387.845 516.439V495.74C387.845 462.432 404.603 431.385 432.414 413.184L438.594 409.021L420.41 332.651Z" fill="#181818"/>
<path d="M580.384 202.274C573.61 138.514 553.643 55.8389 510.024 8.13737C501.942 -0.665417 488.037 -0.665417 479.955 8.13737C436.455 55.8389 416.369 138.514 409.714 202.274C402.582 270.436 410.545 340.502 434.435 404.263C436.455 409.854 441.803 413.541 447.746 413.541H542.471C548.413 413.541 553.643 409.854 555.782 404.263C579.552 340.502 587.515 270.436 580.384 202.274Z" fill="white"/>
<path d="M542.352 414.136H447.627C441.566 414.136 435.98 410.329 433.84 404.5C410.308 341.572 401.75 271.626 409.119 202.155C413.279 162.305 428.611 63.5708 479.598 7.78019C483.52 3.49775 489.225 0.999664 495.049 0.999664C500.873 0.999664 506.578 3.49775 510.5 7.78019C561.487 63.5708 576.819 162.305 580.979 202.274C588.347 271.626 579.671 341.691 556.257 404.619C554.118 410.329 548.532 414.136 542.352 414.136ZM495.049 2.18923C489.463 2.18923 484.233 4.56836 480.43 8.61288C429.681 64.1656 414.468 162.662 410.308 202.393C403.058 271.626 411.496 341.334 435.029 404.143C437.049 409.377 442.16 412.946 447.746 412.946H542.471C548.057 412.946 553.167 409.377 555.188 404.143C578.602 341.334 587.159 271.626 579.909 202.393C575.749 162.662 560.536 64.1656 509.787 8.61288C505.864 4.56836 500.635 2.18923 495.049 2.18923Z" fill="#181818"/>
<path d="M557.803 95.5704H432.295C433.127 92.9534 434.078 90.2174 435.029 87.6004C435.98 84.9833 436.931 82.2473 438 79.6303C448.578 52.5082 462.484 27.5273 480.074 8.13739C487.324 0.167302 501.11 -1.37913 510.143 8.13739C528.09 27.1704 541.52 52.5082 552.098 79.6303C553.167 82.2473 554.118 84.8644 555.069 87.6004C556.02 90.2174 556.852 92.9534 557.803 95.5704Z" fill="white"/>
<path d="M558.635 96.1652H431.463L431.701 95.3325C432.533 92.8344 433.484 90.2174 434.435 87.3624C435.504 84.5075 436.455 81.8904 437.406 79.3923C448.816 50.0101 462.959 25.8619 479.479 7.66157C483.283 3.37913 488.869 1 494.811 0.881047C500.754 0.762091 506.221 3.26018 510.381 7.66157C526.663 24.9103 540.45 48.3447 552.454 79.3923C553.524 82.0094 554.475 84.7454 555.426 87.3624C556.495 90.2174 557.327 92.8344 558.159 95.3325L558.635 96.1652ZM433.127 94.9757H556.971C556.258 92.7155 555.426 90.3363 554.475 87.8383C553.524 85.2212 552.573 82.6042 551.503 79.9871C539.499 49.0584 525.832 25.743 509.668 8.61322C505.746 4.44974 500.516 2.18957 494.93 2.30853C489.344 2.30853 484.115 4.68766 480.549 8.61322C464.029 26.6946 450.004 50.7238 438.594 79.8682C437.644 82.3663 436.574 84.9833 435.623 87.7193C434.672 90.3363 433.84 92.7155 433.127 94.9757Z" fill="#030303"/>
<path d="M539.381 449.823H450.717L446.32 413.541H543.778L539.381 449.823Z" fill="white"/>
<path d="M539.856 450.418H450.242L445.726 413.065H544.491L539.856 450.418ZM451.312 449.228H538.786L543.065 414.255H447.033L451.312 449.228Z" fill="#181818"/>
<path d="M461.652 449.823H455.59L453.213 423.058C453.094 421.154 454.521 419.608 456.422 419.608C458.086 419.608 459.512 420.917 459.631 422.582L461.652 449.823Z" fill="white"/>
<path d="M462.365 450.417H455.115L452.619 423.057C452.5 421.987 452.857 420.916 453.57 420.202C454.283 419.37 455.353 419.013 456.422 419.013C458.443 419.013 460.107 420.559 460.225 422.582L462.365 450.417ZM456.185 449.228H461.057L459.037 422.582C458.918 421.273 457.73 420.202 456.422 420.202C455.709 420.202 454.996 420.559 454.521 421.035C454.045 421.63 453.807 422.344 453.807 423.057L456.185 449.228Z" fill="#181818"/>
<path d="M472.111 449.823H466.049L464.266 422.939C464.148 421.035 465.574 419.489 467.475 419.489C469.139 419.489 470.566 420.798 470.684 422.582L472.111 449.823Z" fill="white"/>
<path d="M472.705 450.418H465.455L463.672 422.939C463.553 421.868 464.029 420.798 464.742 420.084C465.455 419.37 466.525 418.894 467.475 418.894C469.496 418.894 471.16 420.441 471.279 422.463L472.705 450.418ZM466.525 449.228H471.397L469.971 422.582C469.852 421.154 468.783 420.084 467.357 420.084C466.643 420.084 465.93 420.322 465.455 420.917C464.98 421.392 464.742 422.106 464.742 422.939L466.525 449.228Z" fill="#181818"/>
<path d="M482.451 449.823H476.389L475.201 422.939C475.082 421.154 476.627 419.608 478.41 419.608C480.192 419.608 481.619 421.035 481.619 422.701L482.451 449.823Z" fill="white"/>
<path d="M483.045 450.418H475.795L474.606 422.939C474.606 421.868 474.963 420.917 475.676 420.084C476.389 419.251 477.34 418.894 478.41 418.894C480.549 418.894 482.213 420.56 482.213 422.582L483.045 450.418ZM476.983 449.228H481.856L481.143 422.701C481.143 421.273 479.955 420.203 478.529 420.203C477.815 420.203 477.102 420.441 476.627 421.035C476.152 421.511 475.914 422.225 475.914 422.939L476.983 449.228Z" fill="#181818"/>
<path d="M492.91 449.823H486.848L486.373 422.82C486.373 421.035 487.799 419.489 489.582 419.489C491.365 419.489 492.791 420.917 492.791 422.701L492.91 449.823Z" fill="white"/>
<path d="M493.504 450.418H486.254L485.779 422.82C485.779 421.749 486.135 420.798 486.848 420.084C487.561 419.37 488.512 418.894 489.582 418.894C491.721 418.894 493.385 420.56 493.385 422.701L493.504 450.418ZM487.442 449.228H492.315L492.197 422.701C492.197 421.273 491.008 420.084 489.582 420.084C488.869 420.084 488.156 420.322 487.68 420.917C487.205 421.511 486.967 422.106 486.967 422.82L487.442 449.228Z" fill="#030303"/>
<path d="M503.25 449.823H497.188L497.307 422.701C497.307 420.917 498.733 419.489 500.516 419.489C502.299 419.489 503.725 420.917 503.725 422.82L503.25 449.823Z" fill="white"/>
<path d="M503.844 450.418H496.594L496.713 422.701C496.713 420.56 498.377 418.894 500.516 418.894C501.586 418.894 502.537 419.251 503.25 420.084C503.963 420.917 504.319 421.749 504.319 422.82L503.844 450.418ZM497.783 449.228H502.655L503.131 422.82C503.131 422.106 502.893 421.392 502.418 420.917C501.942 420.441 501.229 420.084 500.516 420.084C499.09 420.084 497.901 421.273 497.901 422.701L497.783 449.228Z" fill="#030303"/>
<path d="M513.709 449.823H507.647L508.479 422.701C508.479 420.917 509.905 419.608 511.688 419.608C513.471 419.608 515.016 421.154 514.897 422.939L513.709 449.823Z" fill="white"/>
<path d="M514.184 450.418H506.934L507.766 422.582C507.885 420.56 509.549 418.894 511.569 418.894C512.639 418.894 513.59 419.37 514.303 420.084C515.016 420.798 515.373 421.868 515.373 422.939L514.184 450.418ZM508.241 449.228H513.114L514.184 422.82C514.184 422.106 513.946 421.392 513.471 420.917C512.996 420.441 512.282 420.084 511.569 420.084C510.143 420.084 508.955 421.154 508.955 422.582L508.241 449.228Z" fill="#181818"/>
<path d="M524.049 449.823H517.987L519.414 422.582C519.532 420.917 520.959 419.489 522.623 419.489C524.524 419.489 525.95 421.035 525.832 422.939L524.049 449.823Z" fill="white"/>
<path d="M524.643 450.418H517.393L518.819 422.582C518.938 420.56 520.602 419.013 522.623 419.013C523.692 419.013 524.643 419.489 525.356 420.203C526.069 420.917 526.426 421.987 526.426 423.058L524.643 450.418ZM518.582 449.228H523.454L525.237 422.939C525.237 422.225 525 421.511 524.524 420.917C524.049 420.322 523.336 420.084 522.623 420.084C521.196 420.084 520.127 421.154 520.008 422.582L518.582 449.228Z" fill="#181818"/>
<path d="M534.508 449.823H528.446L530.586 422.463C530.704 420.798 532.131 419.489 533.795 419.489C535.696 419.489 537.122 421.154 537.004 422.939L534.508 449.823Z" fill="white"/>
<path d="M534.983 450.418H527.733L529.872 422.463C529.991 420.441 531.655 418.894 533.676 418.894C534.745 418.894 535.815 419.37 536.528 420.084C537.241 420.917 537.598 421.987 537.479 422.939L534.983 450.418ZM529.041 449.228H533.913L536.29 422.939C536.409 422.225 536.172 421.511 535.577 420.917C535.102 420.322 534.389 420.084 533.676 420.084C532.368 420.084 531.18 421.154 531.061 422.463L529.041 449.228Z" fill="#181818"/>
<path d="M495.049 537.137C486.729 537.137 479.955 530.475 479.836 522.149L477.934 421.987C477.697 409.259 478.766 396.411 481.024 383.921L490.651 332.77H499.446L509.073 383.921C511.451 396.53 512.52 409.259 512.164 421.987L510.262 522.149C510.143 530.475 503.369 537.137 495.049 537.137Z" fill="#181818"/>
<path d="M495.02 213.192C518.201 213.192 537.009 194.4 537.029 171.219C537.05 148.038 518.275 129.246 495.094 129.246C471.913 129.246 453.104 148.038 453.084 171.219C453.064 194.4 471.839 213.192 495.02 213.192Z" fill="white"/>
<path d="M495.049 213.813C471.635 213.813 452.5 194.661 452.5 171.227C452.5 147.792 471.635 128.64 495.049 128.64C518.463 128.64 537.598 147.792 537.598 171.227C537.598 194.661 518.463 213.813 495.049 213.813ZM495.049 129.83C472.229 129.83 453.689 148.387 453.689 171.227C453.689 194.066 472.229 212.624 495.049 212.624C517.868 212.624 536.409 194.066 536.409 171.227C536.409 148.387 517.868 129.83 495.049 129.83Z" fill="#181818"/>
<path d="M495.643 129.235H494.455V213.218H495.643V129.235Z" fill="#181818"/>
<path d="M537.004 170.632H453.094V171.822H537.004V170.632Z" fill="#181818"/>
<path d="M465.336 141.488L493.266 169.442L524.762 200.847" fill="white"/>
<path d="M465.811 141.106L464.971 141.947L524.303 201.332L525.144 200.491L465.811 141.106Z" fill="#181818"/>
<path d="M465.336 200.847L493.266 173.011L524.762 141.488" fill="white"/>
<path d="M524.303 141.106L464.971 200.491L465.811 201.332L525.144 141.947L524.303 141.106Z" fill="#181818"/>
<path d="M479.004 132.447L494.098 168.848L511.094 210.007" fill="white"/>
<path d="M479.553 132.202L478.455 132.657L510.567 210.249L511.665 209.794L479.553 132.202Z" fill="#181818"/>
<path d="M456.303 187.286L492.672 172.178L533.795 155.168" fill="white"/>
<path d="M533.579 154.597L456.064 186.746L456.519 187.845L534.034 155.696L533.579 154.597Z" fill="#181818"/>
<path d="M456.303 155.168L492.672 170.275L533.795 187.286" fill="white"/>
<path d="M456.532 154.592L456.077 155.691L533.6 187.832L534.055 186.733L456.532 154.592Z" fill="#181818"/>
<path d="M479.004 210.007L494.098 173.487L511.094 132.447" fill="white"/>
<path d="M510.566 132.195L478.446 209.779L479.544 210.234L511.664 132.651L510.566 132.195Z" fill="#181818"/>
<path d="M495.049 200.966C511.459 200.966 524.762 187.651 524.762 171.227C524.762 154.802 511.459 141.488 495.049 141.488C478.639 141.488 465.336 154.802 465.336 171.227C465.336 187.651 478.639 200.966 495.049 200.966Z" fill="white"/>
<path d="M495.049 201.442C478.41 201.442 464.742 187.881 464.742 171.108C464.742 154.335 478.291 140.774 495.049 140.774C511.807 140.774 525.356 154.454 525.356 171.227C525.356 188 511.688 201.442 495.049 201.442ZM495.049 142.082C479.004 142.082 465.93 155.168 465.93 171.227C465.93 187.286 479.004 200.371 495.049 200.371C511.094 200.371 524.168 187.286 524.168 171.227C524.168 155.168 511.094 142.082 495.049 142.082Z" fill="#181818"/>
<path d="M475.795 159.688C479.717 153.145 486.848 148.744 495.049 148.744L475.795 159.688Z" fill="white"/>
<path d="M476.389 160.045L475.32 159.45C479.479 152.551 486.967 148.268 495.049 148.268V149.458C487.442 149.458 480.311 153.502 476.389 160.045Z" fill="#181818"/>
<path d="M557.803 95.5704H432.295C433.127 92.9534 434.078 90.2174 435.029 87.6004C435.98 84.9833 436.931 82.2473 438 79.6303H551.979C553.049 82.2473 553.999 84.8644 554.95 87.6004C556.02 90.2174 556.852 92.9534 557.803 95.5704Z" fill="white"/>
<path d="M558.635 96.1652H431.463L431.701 95.3325C432.533 92.8344 433.484 90.2174 434.435 87.3624C435.504 84.5075 436.455 81.8904 437.406 79.3923L437.525 79.0355H552.335L552.454 79.3923C553.524 82.0094 554.475 84.7454 555.426 87.3624C556.495 90.2174 557.327 92.8344 558.159 95.3325L558.635 96.1652ZM433.127 94.9756H556.971C556.258 92.7155 555.426 90.3363 554.475 87.8383C553.643 85.3402 552.692 82.8421 551.622 80.344H438.476C437.525 82.7231 436.574 85.2212 435.623 87.8383C434.672 90.3363 433.84 92.7155 433.127 94.9756Z" fill="#181818"/>
<path d="M555.069 88.1951H550.315V87.0056H555.069V88.1951ZM545.561 88.1951H540.807V87.0056H545.561V88.1951ZM536.053 88.1951H531.299V87.0056H536.053V88.1951ZM526.545 88.1951H521.791V87.0056H526.545V88.1951ZM517.036 88.1951H512.282V87.0056H517.036V88.1951ZM507.528 88.1951H502.774V87.0056H507.528V88.1951ZM498.02 88.1951H493.266V87.0056H498.02V88.1951ZM488.512 88.1951H483.758V87.0056H488.512V88.1951ZM479.004 88.1951H474.25V87.0056H479.004V88.1951ZM469.496 88.1951H464.742V87.0056H469.496V88.1951ZM459.988 88.1951H455.234V87.0056H459.988V88.1951ZM450.48 88.1951H445.726V87.0056H450.48V88.1951ZM440.971 88.1951H436.217V87.0056H440.971V88.1951Z" fill="#181818"/>
<path d="M581.454 286.615C581.454 286.615 588.229 289.113 595.835 286.615L592.151 310.168C592.151 310.168 590.962 314.094 578.958 310.168L581.454 286.615Z" fill="white"/>
<path d="M587.753 312.428C585.733 312.428 582.88 311.952 578.839 310.644L578.364 310.525L580.979 285.663L581.692 285.901C581.811 285.901 588.347 288.28 595.716 285.901L596.667 285.663L592.864 310.168C592.864 310.287 592.626 311.12 591.438 311.714C590.606 312.19 589.536 312.428 587.753 312.428ZM579.671 309.692C590.368 313.023 591.675 309.93 591.675 309.93L595.241 287.328C589.179 288.994 583.95 287.804 582.048 287.328L579.671 309.692Z" fill="#181818"/>
<path d="M762.584 683.335C764.485 683.335 765.912 681.431 765.317 679.647L670.949 367.981C670.593 366.791 669.523 365.959 668.216 365.959C666.314 365.959 664.888 367.862 665.482 369.646L670.593 386.657H608.196L602.491 367.981C602.134 366.791 601.065 365.959 599.757 365.959C597.856 365.959 596.429 367.862 597.024 369.646L691.392 681.312C691.748 682.502 692.818 683.335 694.125 683.335C696.027 683.335 697.453 681.431 696.859 679.647L685.449 642.176H747.846L759.731 681.312C760.207 682.502 761.395 683.335 762.584 683.335ZM670.474 591.976H732.871L739.17 612.555H676.773L670.474 591.976ZM685.806 436.857H623.409L617.11 416.277H679.507L685.806 436.857ZM687.232 441.258L693.531 461.838H631.134L624.835 441.258H687.232ZM694.838 466.358L701.138 486.937H638.741L632.441 466.358H694.838ZM702.445 491.458L708.744 512.037H646.347L640.048 491.458H702.445ZM710.051 516.558L716.351 537.137H653.954L647.654 516.558H710.051ZM717.658 541.776L723.957 562.356H661.56L655.261 541.776H717.658ZM725.264 566.876L731.564 587.456H669.167L662.867 566.876H725.264ZM672.019 391.058L678.318 411.638H615.921L609.622 391.058H672.019ZM684.261 637.655L677.962 617.076H740.477L746.777 637.655H684.261Z" fill="white"/>
<path d="M762.584 683.929C761.039 683.929 759.731 682.978 759.256 681.431L747.49 642.77H686.4L697.572 679.528C697.929 680.599 697.691 681.669 697.097 682.621C696.383 683.454 695.433 684.048 694.363 684.048C692.818 684.048 691.511 683.097 691.035 681.55L596.667 369.884C596.31 368.814 596.548 367.743 597.142 366.791C597.856 365.959 598.806 365.364 599.876 365.364C601.421 365.364 602.728 366.315 603.204 367.862L608.671 386.062H669.761L664.888 369.884C664.531 368.814 664.769 367.743 665.363 366.791C666.076 365.959 667.027 365.364 668.097 365.364C669.642 365.364 670.949 366.315 671.425 367.862L765.793 679.528C766.149 680.599 765.912 681.669 765.317 682.621C764.723 683.454 763.772 683.929 762.584 683.929ZM684.855 641.581H748.44L760.444 681.074C760.682 682.026 761.633 682.74 762.584 682.74C763.297 682.74 764.01 682.383 764.367 681.788C764.842 681.193 764.961 680.48 764.723 679.766L670.355 368.1C670.117 367.148 669.166 366.434 668.216 366.434C667.503 366.434 666.789 366.791 666.433 367.386C665.957 367.981 665.839 368.695 666.076 369.408L671.425 387.133H607.839L602.015 368.1C601.778 367.148 600.827 366.434 599.876 366.434C599.163 366.434 598.45 366.791 598.093 367.386C597.618 367.981 597.499 368.695 597.737 369.408L692.105 681.074C692.343 682.026 693.293 682.74 694.244 682.74C694.957 682.74 695.67 682.383 696.027 681.788C696.502 681.193 696.621 680.48 696.383 679.766L684.855 641.581ZM747.49 638.25H683.904L677.248 616.481H740.834L747.49 638.25ZM684.736 637.061H745.826L739.883 617.671H678.793L684.736 637.061ZM739.883 613.15H676.298L669.642 591.381H733.227L739.883 613.15ZM677.13 611.961H738.219L732.277 592.571H671.187L677.13 611.961ZM732.277 588.05H668.691L662.035 566.281H725.621L732.277 588.05ZM669.523 586.861H730.613L724.67 567.471H663.58L669.523 586.861ZM724.67 562.951H661.085L654.429 541.182H718.014L724.67 562.951ZM661.917 561.761H723.006L717.064 542.371H655.974L661.917 561.761ZM717.064 537.851H653.478L646.822 516.082H710.408L717.064 537.851ZM654.31 536.661H715.4L709.457 517.271H648.367L654.31 536.661ZM709.457 512.751H645.872L639.216 490.982H702.801L709.457 512.751ZM646.704 511.561H707.793L701.851 492.171H640.761L646.704 511.561ZM701.851 487.651H638.265L631.609 465.882H695.195L701.851 487.651ZM639.097 486.462H700.187L694.244 467.072H633.154L639.097 486.462ZM694.244 462.551H630.659L624.003 440.782H687.588L694.244 462.551ZM631.491 461.362H692.58L686.638 441.972H625.548L631.491 461.362ZM686.638 437.451H623.052L616.396 415.682H679.982L686.638 437.451ZM623.884 436.262H684.974L679.031 416.872H617.941L623.884 436.262ZM679.031 412.233H615.446L608.79 390.464H672.375L679.031 412.233ZM616.278 411.043H677.367L671.425 391.653H610.335L616.278 411.043Z" fill="#181818"/>
<path d="M685.092 258.065C682.834 253.902 673.92 251.76 670.236 254.615L638.384 270.556L607.482 256.281L605.818 254.496C603.917 252.474 601.302 251.166 598.569 250.809L593.458 250.095C591.675 249.857 589.892 250.809 589.298 252.593C588.585 254.734 589.655 256.994 591.794 257.589L600.232 259.968L604.392 263.656L634.937 285.306C636.601 286.496 638.74 287.09 640.999 286.734C641.712 286.615 642.425 286.377 643.019 286.139L681.17 269.247C685.449 267.344 687.351 262.229 685.092 258.065Z" fill="white"/>
<path d="M685.093 258.065C684.379 256.875 683.31 255.924 682.121 255.21C680.933 254.496 679.625 254.021 678.318 253.664C677.011 253.307 675.584 253.188 674.158 253.307C672.732 253.426 671.425 253.783 670.236 254.496L638.384 270.555H638.265H638.146L607.126 256.4H607.007C605.937 255.329 604.987 254.139 603.798 253.307C602.61 252.474 601.302 251.76 599.876 251.403C598.45 251.047 596.905 250.928 595.478 250.69L593.22 250.333C592.507 250.214 591.913 250.333 591.2 250.571C590.011 251.047 589.179 252.474 589.179 253.783C589.179 255.091 590.13 256.4 591.438 256.757L600.114 259.255H600.233L600.351 259.374L604.511 263.061C614.732 270.318 624.835 277.574 634.937 284.83L634.462 285.068L634.937 284.83C636.007 285.663 637.314 286.139 638.74 286.258C640.167 286.377 641.474 286.139 642.781 285.663L643.019 285.544L643.138 285.782L642.781 285.663L667.978 274.719L680.576 269.247C681.646 268.771 682.716 268.295 683.547 267.582C684.379 266.868 685.093 265.916 685.449 264.846C686.4 262.585 686.281 260.087 685.093 258.065ZM685.093 258.065C686.162 260.087 686.4 262.585 685.449 264.727C684.974 265.797 684.379 266.749 683.547 267.463C682.716 268.295 681.646 268.771 680.576 269.247L668.097 274.838L643.138 286.139L642.9 286.258L642.781 286.02L643.138 286.139C641.831 286.734 640.286 286.971 638.859 286.852C637.433 286.734 636.007 286.139 634.818 285.306L635.294 285.068L634.699 285.306C624.478 278.169 614.257 271.031 604.036 263.775L599.876 260.206L599.995 260.325C597.024 259.493 594.171 258.779 591.2 257.827C589.536 257.232 588.466 255.686 588.347 253.902C588.229 252.236 589.298 250.571 590.843 249.857C591.556 249.5 592.507 249.381 593.339 249.5L595.597 249.857C597.142 250.095 598.569 250.214 600.114 250.69C601.659 251.166 603.085 251.879 604.273 252.712C605.581 253.664 606.532 254.853 607.601 255.924L607.482 255.805L638.265 270.318H638.146L670.117 254.615C671.306 253.783 672.732 253.426 674.039 253.426C675.466 253.307 676.773 253.545 678.199 253.783C679.507 254.139 680.814 254.615 682.002 255.329C683.31 256.043 684.379 256.875 685.093 258.065Z" fill="#181818"/>
<path d="M708.15 225.471C707.199 235.701 698.047 243.195 687.707 242.244C677.486 241.292 669.998 232.133 670.949 221.783C671.9 211.553 681.052 204.059 691.392 205.01C701.613 206.081 709.101 215.241 708.15 225.471Z" fill="#181818"/>
<path d="M647.06 425.318L651.22 427.221L655.142 425.318L658.589 436.738H626.142C626.142 431.028 638.384 431.028 638.384 431.028L647.06 425.318Z" fill="#181818"/>
<path d="M718.728 333.84L715.043 252.712L673.802 252.474V252.593C672.613 252.712 671.544 252.95 670.474 253.545L644.564 267.106L651.576 282.332L670.949 274.6C673.326 295.179 684.498 322.896 681.646 331.104L718.728 333.84Z" fill="#181818"/>
<path d="M719.916 255.924C715.637 253.902 707.199 257.351 705.773 261.753L689.134 293.276L655.736 299.7L653.359 299.224C650.626 298.748 647.773 299.105 645.277 300.414L640.642 302.793C638.978 303.625 638.265 305.529 638.741 307.194C639.335 309.335 641.593 310.525 643.732 309.811L651.933 306.837L657.4 307.313L694.838 307.075C696.859 307.075 698.998 306.242 700.543 304.696C701.019 304.22 701.494 303.625 701.851 303.031L722.887 266.987C725.621 263.18 724.195 257.946 719.916 255.924Z" fill="white"/>
<path d="M719.916 255.924C718.609 255.329 717.182 255.21 715.875 255.448C714.449 255.567 713.142 255.924 711.834 256.519C710.527 256.994 709.338 257.708 708.269 258.66C707.199 259.493 706.248 260.563 705.773 261.991L689.371 293.395V293.514H689.252L655.855 300.176H655.736H655.617C654.072 299.938 652.646 299.581 651.22 299.581C649.794 299.581 648.249 299.819 646.941 300.295C645.634 300.77 644.326 301.603 642.9 302.317L640.88 303.388C640.286 303.744 639.81 304.101 639.454 304.696C638.74 305.886 638.859 307.432 639.691 308.503C640.523 309.573 641.949 310.049 643.257 309.692L651.695 306.599H651.814H651.933L657.4 307.075C669.88 306.956 682.359 306.956 694.838 306.956L694.601 307.194L694.838 306.956C696.146 306.956 697.572 306.599 698.761 305.886C699.949 305.172 700.9 304.22 701.613 303.031L701.732 302.793L701.97 302.912L701.613 303.031L715.637 279.477L722.65 267.701C723.244 266.749 723.838 265.678 724.076 264.608C724.314 263.537 724.314 262.347 724.076 261.158C723.601 258.779 721.937 256.875 719.916 255.924ZM719.916 255.924C722.055 256.875 723.601 258.898 724.076 261.039C724.314 262.11 724.314 263.299 724.076 264.489C723.838 265.678 723.244 266.63 722.65 267.582L715.756 279.477L702.088 303.269L701.97 303.506L701.732 303.388L702.088 303.269C701.375 304.577 700.306 305.648 699.117 306.361C697.81 307.075 696.383 307.551 694.957 307.551L695.195 307.313L694.957 307.551C682.478 307.789 669.998 307.908 657.519 308.027L652.052 307.551H652.29C649.437 308.622 646.704 309.692 643.732 310.644C642.068 311.12 640.167 310.525 639.216 309.097C638.146 307.789 638.027 305.767 638.859 304.339C639.216 303.625 639.929 303.031 640.642 302.674L642.663 301.603C643.97 300.889 645.277 300.176 646.822 299.581C648.249 299.105 649.913 298.748 651.458 298.867C653.003 298.867 654.548 299.224 655.974 299.462H655.855L689.371 293.157L689.252 293.276L706.01 261.753C706.486 260.444 707.437 259.374 708.506 258.422C709.576 257.589 710.765 256.875 712.072 256.281C713.379 255.805 714.687 255.448 716.113 255.21C717.183 255.21 718.609 255.329 719.916 255.924Z" fill="#181818"/>
<path d="M692.937 284.354L709.814 292.443L724.076 268.295C727.76 263.299 725.977 256.043 720.273 253.426C715.4 251.166 709.695 253.188 707.318 257.946L692.937 284.354Z" fill="#181818"/>
<path d="M701.851 256.4C701.969 255.805 702.207 254.972 702.683 254.258C702.801 254.021 703.039 253.783 703.158 253.545C702.326 253.307 701.613 252.95 700.781 252.712L696.978 239.865C698.285 237.605 698.998 234.987 698.761 232.133V231.657C698.879 231.657 699.117 231.657 699.236 231.657C700.9 231.538 702.207 230.11 702.088 228.326C701.97 226.661 700.543 225.352 698.761 225.471C698.642 225.471 698.404 225.471 698.285 225.59C698.047 224.043 696.027 213.932 681.527 216.549C678.675 217.263 676.892 218.928 675.822 220.475C674.634 222.14 674.158 224.281 674.277 226.304L674.396 228.088C674.396 228.207 674.753 233.322 674.753 233.322C675.228 239.032 679.031 243.79 684.023 245.099L684.974 252.355C684.142 252.593 683.191 252.95 682.359 253.188C682.359 253.307 682.478 253.307 682.478 253.426C683.429 257.946 687.113 261.277 691.629 261.753C694.006 261.991 696.146 261.396 698.047 260.206C698.879 259.849 701.375 257.113 701.851 256.4Z" fill="white"/>
<path d="M701.851 256.4C701.969 255.924 702.088 255.329 702.326 254.853C702.564 254.377 702.801 253.902 703.039 253.426V253.545L700.662 252.712L696.621 239.984V239.865V239.746C697.334 238.556 697.81 237.248 698.047 235.82C698.285 234.512 698.404 233.084 698.166 231.657V231.3H698.523C699.355 231.419 700.068 231.062 700.662 230.467C701.256 229.872 701.494 229.159 701.375 228.326C701.256 227.612 700.9 226.779 700.306 226.423C699.711 225.947 698.879 225.828 698.166 226.066L697.691 226.185L697.572 225.709C697.097 222.973 695.67 220.356 693.293 218.809C691.035 217.144 688.064 216.668 685.33 216.787C683.904 216.787 682.478 217.025 681.17 217.263C679.863 217.62 678.556 218.215 677.486 219.166C676.416 220.118 675.584 221.189 675.109 222.497C674.634 223.806 674.396 225.114 674.515 226.542V226.423L674.634 228.207V228.088L675.109 233.441C675.228 235.106 675.703 236.772 676.416 238.318C677.13 239.865 678.199 241.292 679.507 242.363C680.814 243.552 682.359 244.266 683.904 244.742L684.142 244.861V245.099L685.093 252.355V252.593L684.855 252.712L682.24 253.545L682.359 253.069L682.478 253.307C682.834 254.853 683.429 256.4 684.498 257.708C685.568 259.017 686.875 259.968 688.302 260.682C689.847 261.396 691.392 261.634 693.056 261.634C694.72 261.515 696.265 261.039 697.691 260.206C698.404 259.612 698.998 259.017 699.711 258.303C700.662 257.827 701.256 257.113 701.851 256.4ZM701.851 256.4C701.375 257.113 700.662 257.827 700.068 258.541C699.474 259.255 698.76 259.849 698.047 260.563C696.621 261.515 694.957 261.991 693.293 262.229C691.629 262.348 689.847 262.11 688.302 261.396C686.757 260.682 685.33 259.612 684.261 258.303C683.191 256.994 682.478 255.448 682.121 253.664V253.783L682.002 253.545L681.765 253.188L682.121 253.069L684.736 252.117L684.498 252.474L683.429 245.337L683.666 245.694C681.884 245.218 680.22 244.385 678.912 243.077C677.486 241.887 676.416 240.459 675.584 238.794C674.753 237.129 674.277 235.344 674.158 233.56L673.683 228.326V228.207L673.564 226.423V226.542C673.445 224.995 673.683 223.449 674.277 222.021C674.871 220.594 675.822 219.404 676.892 218.334C678.08 217.382 679.388 216.668 680.933 216.311C682.359 216.073 683.904 215.835 685.33 215.835C688.302 215.717 691.392 216.311 693.888 218.096C696.383 219.88 697.929 222.616 698.404 225.59L697.929 225.233C698.879 224.995 699.949 225.233 700.781 225.828C701.613 226.423 702.088 227.374 702.207 228.326C702.326 229.278 701.851 230.348 701.256 230.943C700.543 231.657 699.592 232.014 698.642 231.895L698.998 231.538C699.117 232.965 699.117 234.393 698.76 235.82C698.404 237.248 697.929 238.556 697.097 239.865V239.627L700.781 252.474L703.158 253.307C702.92 253.783 702.564 254.14 702.326 254.734C702.088 255.329 701.969 255.924 701.851 256.4Z" fill="#181818"/>
<path d="M724.908 497.762L730.018 500.023L734.773 497.762L739.051 511.68H699.592C699.592 504.662 714.449 504.662 714.449 504.662L724.908 497.762Z" fill="#181818"/>
<path d="M718.727 333.84L681.765 331.104L645.634 341.216C638.027 342.643 632.441 349.305 632.441 357.037L645.515 424.128L657.757 425.675L657.044 362.152L689.133 355.015V354.896C689.371 355.015 689.609 355.015 689.847 355.134C691.986 355.609 693.887 355.49 695.076 355.371C703.277 403.311 711.596 451.369 719.797 499.309C725.74 498.952 731.682 498.595 737.506 498.238C731.088 443.399 724.908 388.56 718.727 333.84Z" fill="white"/>
<path d="M719.084 499.904L718.965 499.428L694.363 356.085C692.699 356.323 691.154 356.204 689.49 355.847C689.371 355.847 689.371 355.847 689.252 355.728H689.133L657.519 362.747L658.232 426.389L644.921 424.723L631.847 357.275C631.847 349.067 637.552 342.167 645.515 340.74L681.646 330.51H681.765L719.322 333.246V333.721L737.981 498.714L719.084 499.904ZM695.314 354.658L720.035 498.714L736.674 497.643L718.133 334.435L681.765 331.699L645.753 341.81C638.384 343.119 632.917 349.543 632.917 357.037L645.872 423.534L657.044 424.961L656.33 361.676L688.302 354.658L688.064 354.063L689.252 354.42C689.371 354.42 689.609 354.539 689.847 354.539C691.51 354.896 693.174 355.015 694.838 354.658H695.314Z" fill="#181818"/>
<path fill-rule="evenodd" clip-rule="evenodd" d="M503.923 249.127L505.188 249.411L504.063 256.075C503.641 255.933 503.219 255.933 502.797 255.792L503.923 249.127ZM522.768 255.366L520.518 254.09L515.314 263.165L517.565 264.441L522.768 255.366ZM487.187 249.127L485.921 249.411L487.046 256.075C487.468 255.933 487.89 255.933 488.312 255.792L487.187 249.127ZM478.608 251.254L477.482 251.679L479.733 258.06C480.155 257.919 480.436 257.777 480.858 257.635L478.608 251.254ZM529.097 260.896L528.112 260.045L523.753 265.292C524.034 265.576 524.456 265.859 524.737 266.143L529.097 260.896ZM535.426 267.419L534.582 266.426L529.378 270.822C529.66 271.106 529.941 271.389 530.222 271.815L535.426 267.419ZM493.656 247H497.594V258.911H493.656V247ZM540.348 271.957L542.317 275.36L532.05 281.315L530.081 277.912L540.348 271.957ZM450.902 271.957L448.933 275.36L459.199 281.315L461.168 277.912L450.902 271.957ZM470.591 254.09L468.341 255.366L473.545 264.441L475.795 263.165L470.591 254.09ZM512.642 251.254L513.767 251.679L511.517 258.06C511.095 257.919 510.814 257.777 510.392 257.635L512.642 251.254ZM462.012 260.896L462.997 260.045L467.356 265.292C467.075 265.576 466.653 265.859 466.372 266.143L462.012 260.896ZM455.824 267.419L456.668 266.426L461.872 270.822C461.59 271.106 461.309 271.389 461.028 271.815L455.824 267.419Z" fill="#181818"/>
<path d="M492.25 276.494L498.578 267.561H499.422L493.093 276.494H492.25ZM492.812 271.815H493.656V267.561H493.093C492.953 267.844 492.671 267.986 492.39 268.27C492.109 268.412 491.828 268.553 491.546 268.695V269.404C491.968 269.262 492.39 269.121 492.812 268.695V271.815ZM497.031 276.352H500.547V275.643H498.297C498.438 275.502 498.719 275.36 499 275.076C499.563 274.651 499.985 274.367 500.125 274.084C500.407 273.8 500.407 273.516 500.407 273.233C500.407 272.949 500.266 272.666 499.985 272.382C499.703 272.098 499.282 272.098 498.719 272.098C498.156 272.098 497.875 272.24 497.594 272.382C497.313 272.524 497.172 272.949 497.031 273.375L497.875 273.516C498.016 273.233 498.016 273.091 498.156 272.949C498.297 272.807 498.438 272.807 498.719 272.807C499 272.807 499.141 272.807 499.282 272.949C499.422 273.091 499.422 273.233 499.422 273.375C499.422 273.516 499.422 273.658 499.141 273.8C499 273.942 498.719 274.225 498.156 274.509C497.594 274.934 497.172 275.218 497.031 275.643C497.172 275.785 497.031 276.069 497.031 276.352Z" fill="#181818"/>
<path d="M445.557 299.466V290.107H452.308V291.241H446.823V294.077H451.886V295.212H446.823V298.331H452.449V299.466H445.557Z" fill="#181818"/>
<path d="M538.52 299.466V290.107H544.849V291.241H539.786V294.077H544.145V295.212H539.786V299.466H538.52Z" fill="#181818"/>
<path fill-rule="evenodd" clip-rule="evenodd" d="M496.047 302.302L490.421 304.429L475.092 258.06L477.342 257.21L496.047 302.302Z" fill="#6638E9"/>
<path fill-rule="evenodd" clip-rule="evenodd" d="M461.731 298.473H462.434V290.958C462.434 290.674 462.575 290.532 462.715 290.39C462.856 290.249 463.137 290.107 463.278 290.107H466.513C466.794 290.107 466.934 290.249 467.075 290.39C467.216 290.532 467.356 290.816 467.356 290.958V293.652C467.497 293.652 467.497 293.652 467.638 293.652C468.2 293.652 468.763 293.935 468.903 294.361C469.044 294.928 469.185 295.495 469.185 295.921C469.185 296.346 469.044 297.339 469.607 297.48C470.029 297.48 470.029 297.197 470.169 296.913C470.31 296.062 470.029 294.644 470.029 294.219C469.747 292.943 470.169 291.525 468.341 291.099V290.816C470.31 291.241 470.31 292.092 470.591 293.226C470.591 293.51 470.732 293.794 470.732 294.077C470.872 294.644 471.013 296.062 470.872 297.055C470.872 297.197 470.732 297.48 470.732 297.622C470.45 298.048 470.029 298.331 469.607 298.189C468.622 297.906 468.763 296.771 468.622 295.921C468.622 295.495 468.622 294.928 468.482 294.503C468.341 294.361 468.06 294.219 467.778 294.219C467.638 294.219 467.638 294.219 467.497 294.219V298.331H468.2V299.324H466.513H463.278H461.59V298.473H461.731ZM463.559 298.473H466.653V294.503H463.559V298.473ZM463.559 293.51H466.653V290.958H463.559V293.51Z" fill="#6638E9"/>
<g clip-path="url(#clip0)">
<path d="M272.956 408.538L279.845 420.11L249.241 441.324C245.628 444.161 240.433 443.026 238.174 439.056C235.916 435.085 238.4 426.917 243.595 422.606C248.677 418.181 272.956 408.538 272.956 408.538Z" fill="#181818"/>
<path d="M256.469 406.383C247.548 405.248 249.016 395.378 248.79 393.904C248.79 393.79 248.79 393.79 248.79 393.677C248.112 386.303 243.595 377.908 235.464 377.113C226.769 376.206 217.96 380.857 213.782 388.572C208.813 397.647 211.636 407.29 217.057 415.459C220.671 421.131 227.333 423.74 227.333 423.74L256.469 406.383Z" fill="#181818"/>
<path d="M233.206 476.947L215.815 434.177C214.911 430.66 217.283 427.144 220.896 426.69L245.854 421.017C249.467 420.564 252.629 423.286 252.629 426.917L261.099 473.43L233.206 476.947Z" fill="#181818"/>
<path d="M261.099 473.43L248.79 474.905L233.206 476.947C221.8 492.489 213.895 510.3 210.168 529.246L183.969 650.634H192.777L237.723 534.805C238.062 534.011 238.287 533.217 238.626 532.422L248.338 650.634H257.485L265.842 537.414C267.423 515.859 265.842 494.418 261.099 473.43Z" fill="white" stroke="#181818" stroke-miterlimit="10"/>
<path d="M250.484 658.122H256.13V650.521H249.354L250.484 658.122Z" fill="white" stroke="#181818" stroke-miterlimit="10"/>
<path d="M182.388 658.122H188.147L191.874 650.521H185.098L182.388 658.122Z" fill="white" stroke="#181818" stroke-miterlimit="10"/>
<path d="M244.273 444.274C244.273 448.585 247.773 452.215 252.178 452.215C256.469 452.215 260.083 448.699 260.083 444.274C260.083 439.85 256.582 436.333 252.178 436.333C247.773 436.446 244.273 439.963 244.273 444.274Z" fill="#181818"/>
<path d="M238.965 462.879L211.749 474.224L210.168 461.405L237.723 455.165L238.965 462.879Z" fill="#181818"/>
<path d="M213.782 462.993C216.492 465.489 216.718 469.8 214.234 472.522C211.749 475.245 207.458 475.472 204.748 472.976C202.037 470.48 201.812 466.169 204.296 463.447C206.78 460.61 210.959 460.384 213.782 462.993Z" fill="#181818"/>
<path d="M215.024 471.388L202.828 465.829L216.153 431.001C217.509 426.69 222.477 424.534 226.543 426.576C230.608 428.618 233.206 436.673 231.399 443.253C229.592 449.72 215.024 471.388 215.024 471.388Z" fill="#181818"/>
<path d="M267.197 480.464H241.901L254.662 444.161H279.845L267.197 480.464Z" fill="#6638E9"/>
<path d="M253.194 456.413C253.533 458.228 252.178 459.93 250.258 460.043L243.03 460.61L239.078 462.879L237.723 456.413L239.417 455.278C241.336 453.917 243.595 453.35 245.966 453.463L250.258 453.69C251.726 453.69 252.968 454.825 253.194 456.413Z" fill="white" stroke="#181818" stroke-miterlimit="10"/>
<path d="M306.609 397.874L279.845 420.11L272.956 408.538L304.463 388.118L306.609 397.874Z" fill="#181818"/>
<path d="M321.854 381.651L314.514 384.034L311.352 385.055H311.239C308.755 385.849 306.609 387.437 305.028 389.706L304.802 390.046L306.27 396.74L311.013 393.79H315.982C318.354 393.79 320.499 392.315 321.064 390.046C321.29 389.139 321.177 388.231 320.951 387.324C320.612 386.416 320.048 385.622 319.37 385.055L322.532 384.034C323.21 383.807 323.548 383.126 323.323 382.445C323.097 381.765 322.419 381.424 321.854 381.651Z" fill="white" stroke="#181818" stroke-miterlimit="10"/>
<path d="M238.513 412.849C243.821 411.374 247.209 406.042 246.305 400.484L245.515 395.832L245.176 394.13C243.934 390.727 238.739 389.252 235.916 385.622C234.335 393.109 224.623 393.563 223.946 398.895C223.381 398.895 222.929 398.895 222.365 399.122C220.332 399.916 219.315 402.185 220.106 404.114C220.896 406.156 223.155 407.177 225.075 406.383C225.188 406.383 225.301 406.269 225.301 406.269C225.978 408.084 227.22 409.673 228.801 410.921L229.818 423.059L229.253 423.173L229.818 423.74L234.335 428.392L243.821 438.148L245.063 421.244L239.304 422.038L238.513 412.849Z" fill="white" stroke="#181818" stroke-miterlimit="10"/>
<path d="M225.526 406.383L218.751 413.757L227.446 423.627C238.4 422.379 237.61 410.353 237.61 410.353C228.576 411.261 226.091 407.858 225.526 406.383Z" fill="#181818"/>
<path d="M256.921 655.059L253.984 656.307L249.354 655.059L246.87 663H271.262C271.262 659.029 262.793 659.029 262.793 659.029L256.921 655.059Z" fill="#181818"/>
<path d="M188.938 655.059L186.002 656.307L181.372 655.059L178.887 663H203.28C203.28 659.029 194.81 659.029 194.81 659.029L188.938 655.059Z" fill="#181818"/>
</g>
<path d="M618.914 613.857L614.721 621.455L607.333 625.454L614.721 629.453L618.914 636.851L622.907 629.453L630.295 625.454L622.907 621.455L618.914 613.857Z" fill="#181818"/>
<path d="M32.2645 334L29.0699 339.918L23 343.277L29.0699 346.476L32.2645 352.395L35.4592 346.476L41.3693 343.277L35.4592 339.918L32.2645 334Z" fill="#181818"/>
<path d="M835.059 468.143L832.5 472.612L828.17 474.944L832.5 477.47L835.059 481.939L837.421 477.47L841.947 474.944L837.421 472.612L835.059 468.143Z" fill="#181818"/>
<path d="M637.889 66L635.33 70.4692L631 72.8009L635.33 75.3269L637.889 79.7961L640.25 75.3269L644.777 72.8009L640.25 70.4692L637.889 66Z" fill="#181818"/>
<path d="M230.528 276L228.975 278.979L226 280.663L228.975 282.218L230.528 285.197L232.209 282.218L235.185 280.663L232.209 278.979L230.528 276Z" fill="#181818"/>
<path d="M937.889 35L935.33 39.4692L931 41.8009L935.33 44.3269L937.889 48.7961L940.25 44.3269L944.777 41.8009L940.25 39.4692L937.889 35Z" fill="#181818"/>
<path d="M84.7093 477.904L84.838 477.831L84.9064 477.7L86.8091 474.048L88.8786 477.715L88.9469 477.836L89.0677 477.904L92.7309 479.978L89.0825 481.884L88.9513 481.952L88.8786 482.081L86.8091 485.748L84.9064 482.096L84.8338 481.957L84.6945 481.884L81.0461 479.978L84.7093 477.904Z" stroke="#181818"/>
<path d="M359.829 584.835L359.958 584.764L360.027 584.635L363.581 578.053L367.134 584.635L367.202 584.762L367.327 584.833L373.931 588.586L367.336 592.156L367.205 592.227L367.134 592.358L363.581 598.941L360.027 592.358L359.955 592.224L359.82 592.153L353.052 588.586L359.829 584.835Z" stroke="#181818"/>
<path d="M331.891 110.078L332.019 110.006L332.088 109.874L333.602 106.967L335.251 109.889L335.32 110.01L335.441 110.078L338.36 111.731L335.455 113.248L335.324 113.317L335.251 113.446L333.602 116.367L332.088 113.46L332.015 113.321L331.876 113.248L328.971 111.731L331.891 110.078Z" stroke="#181818"/>
<path d="M96.9654 141.159L97.0942 141.087L97.1626 140.955L98.6771 138.048L100.326 140.97L100.395 141.091L100.515 141.159L103.435 142.812L100.53 144.329L100.399 144.398L100.326 144.527L98.6771 147.448L97.1626 144.541L97.09 144.402L96.9507 144.329L94.0461 142.812L96.9654 141.159Z" stroke="#181818"/>
<path d="M906.216 589.511L906.341 589.444L906.412 589.32L908.946 584.894L911.277 589.305L911.35 589.444L911.49 589.516L915.942 591.809L911.475 594.302L911.346 594.374L911.277 594.505L908.946 598.916L906.412 594.49L906.346 594.374L906.23 594.307L901.949 591.809L906.216 589.511Z" stroke="#181818"/>
<path d="M800.709 168.904L800.838 168.831L800.906 168.7L802.809 165.048L804.879 168.715L804.947 168.836L805.068 168.904L808.731 170.978L805.082 172.884L804.951 172.952L804.879 173.081L802.809 176.748L800.906 173.096L800.834 172.957L800.695 172.884L797.046 170.978L800.709 168.904Z" stroke="#181818"/>
<path d="M1089.83 505.835L1089.96 505.764L1090.03 505.635L1093.58 499.053L1097.13 505.635L1097.2 505.762L1097.33 505.833L1103.93 509.586L1097.34 513.156L1097.2 513.227L1097.13 513.358L1093.58 519.941L1090.03 513.358L1089.96 513.224L1089.82 513.153L1083.05 509.586L1089.83 505.835Z" stroke="#181818"/>
<path d="M1054.89 223.994L1055.02 223.923L1055.09 223.794L1056.57 221.053L1058.05 223.794L1058.12 223.92L1058.24 223.991L1061.01 225.564L1058.25 227.057L1058.12 227.128L1058.05 227.26L1056.57 230.001L1055.09 227.26L1055.02 227.126L1054.88 227.055L1052.05 225.564L1054.89 223.994Z" stroke="#181818"/>
<defs>
<clipPath id="clip0">
<rect width="145" height="286" fill="white" transform="translate(179 377)"/>
</clipPath>
</defs>
</svg>
