<svg width="193" height="50" viewBox="0 0 193 50" fill="none" xmlns="http://www.w3.org/2000/svg">
<path d="M9.48542 41.6667H2.62238V2.77777H24.9412V9.16666H9.48542V20.1667H23.2673V26.5556H9.48542V41.6667ZM38.8238 41.6667H32.4071V16.6667H38.8238V41.6667ZM31.7376 7.66666C31.7376 6.55555 32.1095 5.66666 32.8535 5C33.6347 4.2963 34.6019 3.94444 35.755 3.94444C36.7593 3.94444 37.615 4.2963 38.3216 5C39.0657 5.70369 39.4376 6.59258 39.4376 7.66666C39.4376 8.85186 39.0657 9.8148 38.3216 10.5556C37.615 11.2963 36.7593 11.6667 35.755 11.6667C34.6019 11.6667 33.6347 11.2963 32.8535 10.5556C32.1095 9.8148 31.7376 8.85186 31.7376 7.66666ZM53.3503 41.6667H46.9336V16.6667H53.3503V19.1667C55.21 17.2037 57.6093 16.2222 60.5481 16.2222C67.4296 16.2222 70.8706 19.8148 70.8706 27V41.6667H64.4539V28.1111C64.4539 24.1852 62.5752 22.2222 58.8184 22.2222C56.7723 22.2222 54.9497 23.0185 53.3503 24.6111V41.6667ZM92.9046 16.6667H100.995L91.5655 28.1111L102.111 41.6667H93.8531L83.9213 28.6111L92.9046 16.6667ZM83.8097 41.6667H77.393V2.77777H83.8097V41.6667Z" fill="#181818"/>
<path d="M129.561 18.5418L128.682 15.8751C130.551 14.7363 132.644 14.1668 134.959 14.1668C137.498 14.1668 139.339 14.7918 140.483 16.0418C141.627 17.2918 142.199 19.2224 142.199 21.8335V33.3335H139.019V30.9168C137.54 32.7224 135.531 33.6251 132.993 33.6251C131.263 33.6251 129.868 33.1113 128.808 32.0835C127.748 31.0279 127.218 29.6113 127.218 27.8335C127.218 26.0001 127.873 24.5557 129.184 23.5001C130.496 22.4168 132.211 21.8751 134.332 21.8751C136.312 21.8751 137.875 22.2779 139.019 23.0835C139.019 20.9724 138.726 19.4585 138.14 18.5418C137.554 17.6251 136.424 17.1668 134.75 17.1668C133.048 17.1668 131.319 17.6251 129.561 18.5418ZM134.164 30.6251C136.033 30.6251 137.652 29.8196 139.019 28.2085V25.8335C137.847 25.0001 136.438 24.5835 134.792 24.5835C133.648 24.5835 132.686 24.8613 131.904 25.4168C131.151 25.9446 130.775 26.6946 130.775 27.6668C130.775 28.5835 131.068 29.3057 131.653 29.8335C132.267 30.3613 133.104 30.6251 134.164 30.6251ZM175.759 21.0418V33.3335H172.411V21.9585C172.411 18.9029 171.058 17.3751 168.352 17.3751C167.264 17.3751 166.274 17.6251 165.381 18.1251C164.516 18.5974 163.861 19.2501 163.414 20.0835C163.442 20.2224 163.456 20.6668 163.456 21.4168V33.3335H160.108V21.2501C160.108 20.0557 159.746 19.1113 159.02 18.4168C158.323 17.7224 157.346 17.3751 156.091 17.3751C153.998 17.3751 152.352 18.2224 151.153 19.9168V33.3335H147.805V14.5835H151.153V16.9585C151.85 16.1529 152.757 15.5001 153.873 15.0001C155.017 14.5001 156.188 14.2501 157.388 14.2501C158.811 14.2501 160.025 14.5418 161.029 15.1251C162.033 15.7085 162.717 16.5001 163.079 17.5001C163.777 16.5001 164.711 15.7085 165.883 15.1251C167.055 14.5418 168.324 14.2501 169.691 14.2501C173.737 14.2501 175.759 16.514 175.759 21.0418Z" fill="#6638E9"/>
<path d="M119.964 40.2778H111.594V48.6111H119.964V40.2778Z" fill="#6638E9"/>
<path d="M114.384 44.4444H189.71V2.77777H114.384V34.6406" stroke="#6638E9" stroke-width="2"/>
</svg>
